<svg xmlns="http://www.w3.org/2000/svg" version="1.1" xmlns:xlink="http://www.w3.org/1999/xlink" xmlns:svgjs="http://svgjs.dev/svgjs" width="750" height="515" viewBox="0 0 312 312" class="svg-animations " style="background: rgb(31, 23, 23);"><svg viewBox="0 0 260.0198974609375 264.4156799316406" width="75" height="75" x="118.5" y="93.5618782043457" style="fill: rgb(90, 237, 131);"><svg xmlns="http://www.w3.org/2000/svg" viewBox="0 0 75.07 74.9"><path d="m65.04,0c-4.56.03-8.52,3.13-9.64,7.55h-15.39c-1.38,0-2.5,1.12-2.5,2.5s1.12,2.5,2.5,2.5h15.39c1.41,5.34,6.88,8.53,12.22,7.12,5.34-1.41,8.53-6.88,7.12-12.22C73.58,3.06,69.61,0,65.07,0h-.03Zm0,15.11c-2.79.03-5.09-2.21-5.12-5-.03-2.79,2.21-5.09,5-5.12,2.79-.03,5.09,2.21,5.12,5,0,.02,0,.04,0,.06.03,2.76-2.18,5.03-4.94,5.06-.02,0-.04,0-.06,0Z"></path><path d="m58.29,34.03c-4.98,0-9.2,3.68-9.89,8.62h-6l-10.74-23c-.41-.88-1.3-1.44-2.27-1.44h-9.36c-.66-5.51-5.66-9.45-11.17-8.79C3.35,10.08-.59,15.08.07,20.59c.66,5.51,5.66,9.45,11.17,8.79,3.62-.43,6.73-2.79,8.11-6.17h8.4l10.75,23c.41.88,1.29,1.44,2.26,1.44h8.2c2,5.15,7.79,7.7,12.94,5.7s7.7-7.79,5.7-12.94c-1.49-3.84-5.19-6.38-9.31-6.38ZM10.11,24.48c-2.79.03-5.09-2.21-5.12-5-.03-2.79,2.21-5.09,5-5.12,2.79-.03,5.09,2.21,5.12,5,0,.02,0,.04,0,.06.03,2.76-2.18,5.03-4.94,5.06-.02,0-.04,0-.06,0Zm48.18,24.63c-2.79.03-5.07-2.21-5.1-5-.03-2.79,2.21-5.07,5-5.1s5.07,2.21,5.1,5c0,.02,0,.03,0,.05.03,2.76-2.19,5.02-4.95,5.05-.02,0-.03,0-.05,0Z"></path><path d="m46.19,62.34h-16.51c-1.38-5.38-6.86-8.63-12.24-7.24-5.38,1.38-8.63,6.86-7.24,12.24,1.38,5.38,6.86,8.63,12.24,7.24,3.56-.91,6.33-3.69,7.24-7.24h16.51c1.38,0,2.5-1.12,2.5-2.5s-1.12-2.5-2.5-2.5Zm-26.17,7.56c-2.79.03-5.09-2.21-5.12-5s2.21-5.09,5-5.12c2.79-.03,5.09,2.21,5.12,5,0,.02,0,.04,0,.06.03,2.76-2.18,5.03-4.94,5.06-.02,0-.04,0-.06,0Z"></path></svg></svg><text fill="#5aed83" font-family="Tourney" font-size="38px" x="130.12881088256836" y="202.69629400710141"><tspan dy="0" x="130.12881088256836">JC</tspan></text><text fill="#55a162" font-family="Montserrat" font-size="19px" x="156" y="218.4381217956543"><tspan dy="0" x="156"></tspan></text></svg>